<svg id="changeColor" fill="#DC7633" xmlns="http://www.w3.org/2000/svg" xmlns:xlink="http://www.w3.org/1999/xlink" width="200" zoomAndPan="magnify" viewBox="0 0 375 374.9999" height="200" preserveAspectRatio="xMidYMid meet" version="1.0" transform="rotate(45)"><defs><path id="pathAttribute" d="M 21 20.746094 L 356 20.746094 L 356 354.496094 L 21 354.496094 Z M 21 20.746094 " fill="#f269d4" stroke="#ffffff"></path></defs><g><path id="pathAttribute" d="M 305.054688 287.929688 C 326.289062 262.996094 337.640625 228.917969 334.976562 196.257812 C 333.710938 166.417969 327.25 136.238281 311.234375 110.726562 C 290.984375 79.550781 263.933594 48.761719 226.109375 40.824219 C 207.96875 37.753906 189.773438 34.777344 171.363281 34.117188 C 148.273438 36.992188 124.085938 38.367188 103.6875 50.777344 C 80.542969 67.496094 59.980469 89.046875 47.53125 114.972656 C 41.429688 126.136719 36.824219 137.859375 33.265625 150.097656 C 28.304688 163.90625 24.402344 178.761719 22.910156 193.429688 C 17.347656 262.273438 43.945312 326.222656 116.664062 341.839844 C 151.355469 352.542969 189.421875 350.734375 223.121094 337.410156 C 245.902344 331.292969 267.867188 321.273438 286.566406 306.671875 C 292.480469 300.195312 299.261719 294.527344 305.054688 287.929688 Z M 26.207031 212.421875 C 26.0625 206.640625 26.308594 200.949219 26.292969 195.152344 C 26.679688 200.894531 26.597656 206.679688 26.207031 212.421875 Z M 209.273438 332 C 209.230469 332 209.195312 331.875 209.175781 331.847656 L 209.179688 331.847656 C 208.703125 331.304688 207.957031 331.027344 207.273438 330.832031 C 207.28125 330.832031 207.285156 330.832031 207.292969 330.835938 C 206.964844 330.769531 206.636719 330.726562 206.300781 330.683594 C 206.3125 330.683594 206.324219 330.6875 206.339844 330.6875 C 201.839844 329.953125 197.328125 330.839844 192.800781 330.457031 L 192.90625 330.457031 C 177.699219 331.898438 162.160156 332.011719 147.019531 330.289062 C 159.738281 330.371094 172.347656 328.507812 185.042969 328.621094 L 185.023438 328.621094 C 185.054688 328.625 185.085938 328.625 185.121094 328.625 L 185.097656 328.625 C 185.125 328.628906 185.148438 328.628906 185.175781 328.628906 L 185.171875 328.628906 C 185.203125 328.628906 185.230469 328.632812 185.257812 328.632812 L 185.234375 328.632812 C 192.386719 329.316406 199.699219 327.777344 206.636719 330.203125 L 206.632812 330.203125 C 207.574219 330.621094 208.8125 330.980469 209.273438 331.976562 L 209.273438 331.980469 C 209.273438 331.980469 209.277344 331.980469 209.277344 331.984375 C 209.285156 331.988281 209.28125 332 209.273438 332 Z M 259.0625 90.792969 L 259.054688 90.792969 C 248.09375 81.1875 235.964844 73.3125 223.289062 66.195312 L 223.296875 66.199219 C 219.164062 63.570312 214.265625 62.589844 209.898438 60.449219 C 209.90625 60.453125 209.914062 60.453125 209.921875 60.457031 C 209.671875 60.34375 209.425781 60.226562 209.179688 60.109375 C 209.207031 60.121094 209.238281 60.136719 209.265625 60.148438 C 209 60.023438 208.734375 59.898438 208.472656 59.773438 C 208.496094 59.785156 208.523438 59.796875 208.550781 59.808594 C 207.820312 59.460938 207.078125 59.164062 206.316406 58.894531 C 206.328125 58.898438 206.339844 58.902344 206.347656 58.902344 C 205.054688 58.515625 203.804688 57.964844 202.476562 57.6875 L 202.480469 57.6875 C 202.023438 57.605469 201.566406 57.550781 201.101562 57.519531 L 201.113281 57.519531 C 200.859375 57.503906 200.609375 57.496094 200.355469 57.535156 C 200.347656 57.539062 200.304688 57.546875 200.292969 57.554688 C 200.292969 57.550781 200.289062 57.550781 200.289062 57.554688 C 201.085938 57.167969 202.507812 57.449219 203.519531 57.449219 L 203.492188 57.449219 C 218.039062 60.242188 232.445312 66.734375 243.632812 76.566406 C 243.605469 76.542969 243.574219 76.519531 243.546875 76.5 C 248.96875 80.984375 254.496094 85.394531 259.066406 90.78125 C 259.074219 90.785156 259.066406 90.792969 259.0625 90.792969 Z M 284.269531 104.128906 C 281.628906 101.011719 279.199219 97.710938 276.6875 94.492188 C 276.703125 94.507812 276.71875 94.53125 276.734375 94.546875 C 276.59375 94.367188 276.449219 94.183594 276.304688 94 C 276.320312 94.023438 276.335938 94.039062 276.351562 94.0625 C 264.3125 79.179688 250.96875 63.894531 232.542969 57.207031 L 232.539062 57.203125 C 232.539062 57.203125 232.535156 57.203125 232.53125 57.199219 C 232.53125 57.199219 232.527344 57.199219 232.523438 57.195312 C 232.519531 57.195312 232.519531 57.195312 232.519531 57.191406 C 231.746094 56.933594 230.960938 56.714844 230.160156 56.546875 C 230.167969 56.550781 230.171875 56.550781 230.179688 56.554688 C 229.726562 56.464844 229.273438 56.394531 228.8125 56.355469 L 228.824219 56.355469 C 228.453125 56.308594 227.953125 56.378906 227.652344 56.355469 C 234.214844 55.839844 241.257812 58.246094 246.609375 62.019531 C 246.597656 62.011719 246.582031 62.003906 246.566406 61.996094 C 263.304688 71.605469 274.1875 88.164062 284.269531 104.128906 Z M 297.824219 133.023438 C 296.890625 131.175781 296.03125 129.292969 295.40625 127.316406 L 295.445312 127.425781 C 294.15625 124.023438 292.597656 120.734375 291.308594 117.335938 C 291.304688 117.335938 291.308594 117.328125 291.304688 117.328125 C 291.261719 117.238281 291.214844 117.15625 291.175781 117.066406 C 291.175781 117.070312 291.175781 117.074219 291.175781 117.074219 C 291.066406 116.871094 290.976562 116.644531 290.832031 116.464844 C 292.441406 118.363281 294.113281 120.851562 295.265625 123.234375 C 295.265625 123.234375 295.265625 123.238281 295.265625 123.238281 C 295.269531 123.238281 295.269531 123.242188 295.269531 123.246094 L 295.269531 123.242188 C 295.425781 123.542969 295.574219 123.84375 295.722656 124.144531 C 295.722656 124.140625 295.71875 124.140625 295.71875 124.136719 C 298.894531 129.25 299.925781 135.226562 301.160156 141.011719 C 300.175781 138.304688 299.113281 135.609375 297.824219 133.023438 Z M 200.589844 57.511719 Z M 232.546875 57.207031 L 232.542969 57.207031 L 232.542969 57.203125 Z M 227.996094 56.347656 Z M 185.203125 328.628906 L 185.175781 328.628906 C 185.183594 328.628906 185.195312 328.628906 185.203125 328.628906 Z M 223.230469 66.160156 C 223.25 66.167969 223.269531 66.179688 223.285156 66.195312 C 223.265625 66.183594 223.25 66.171875 223.230469 66.160156 Z M 291.3125 117.335938 Z M 291.308594 117.328125 L 291.3125 117.335938 Z M 291.304688 117.324219 C 291.304688 117.324219 291.304688 117.328125 291.308594 117.328125 Z M 232.527344 57.195312 L 232.539062 57.199219 C 232.535156 57.199219 232.53125 57.195312 232.527344 57.195312 Z M 232.539062 57.199219 L 232.542969 57.199219 Z M 232.523438 57.191406 L 232.527344 57.195312 Z M 232.515625 57.191406 L 232.523438 57.191406 Z M 232.507812 57.1875 L 232.515625 57.191406 Z M 52.722656 79.667969 C 51.75 80.828125 50.59375 81.972656 49.847656 83.214844 C 55.722656 69.972656 65.6875 58.632812 76.914062 49.585938 C 90.355469 34.546875 109.078125 25.359375 128.511719 20.746094 C 109.972656 29.015625 92.453125 39.84375 77.269531 53.339844 C 69.539062 62.605469 60.078125 70.148438 52.722656 79.667969 Z M 63.789062 331.898438 C 51.304688 326.5 42.3125 316.828125 34.542969 306.039062 C 26.699219 295.367188 20.015625 280.296875 21.503906 266.878906 C 23.109375 279.695312 29.945312 291.011719 36.390625 301.976562 C 42.964844 313.84375 54.09375 322.664062 63.789062 331.898438 Z M 80.699219 346.746094 C 86.332031 348.691406 91.84375 351.0625 96.746094 354.496094 C 88.484375 353.445312 81.179688 348.910156 73.832031 345.566406 C 75.9375 345.414062 78.726562 346.132812 80.699219 346.746094 Z M 339.28125 248.132812 C 340.855469 244.523438 341.867188 240.675781 342.789062 236.914062 C 342.320312 252.367188 337.96875 267.609375 328.765625 280.140625 C 322.710938 292.796875 312.164062 303.363281 299.625 309.585938 C 309.726562 301.390625 316.902344 290.863281 324.90625 280.773438 C 330.902344 270.5625 335.097656 259.1875 339.28125 248.132812 Z M 299.617188 309.589844 L 299.625 309.585938 L 299.617188 309.59375 Z M 354.984375 244.550781 C 354.605469 252.582031 353.007812 260.570312 348.808594 267.507812 C 352.753906 249.460938 352.386719 230.722656 352.316406 212.3125 C 354.417969 222.875 357.523438 233.800781 354.984375 244.550781 Z M 342.683594 143.546875 C 343.238281 145.917969 343.355469 148.449219 343.269531 150.8125 C 341.75 146.207031 340.003906 141.648438 339.828125 136.777344 C 340.90625 138.972656 342.003906 141.1875 342.683594 143.546875 Z M 342.683594 143.546875 " fill-opacity="1" fill-rule="nonzero" fill="#f269d4" stroke="#ffffff"></path></g><g id="inner-icon" transform="translate(85, 75)"> <svg xmlns="http://www.w3.org/2000/svg" width="224" height="224" fill="currentColor" class="bi bi-play-fill" viewBox="0 0 16 16" id="IconChangeColor"> <path d="m11.596 8.697-6.363 3.692c-.54.313-1.233-.066-1.233-.697V4.308c0-.63.692-1.01 1.233-.696l6.363 3.692a.802.802 0 0 1 0 1.393z" id="mainIconPathAttribute" fill="#ffffff"></path> </svg> </g></svg>